<?xml version="1.0" encoding="UTF-8"?>
<svg id="Layer_1" data-name="Layer 1" xmlns="http://www.w3.org/2000/svg" xmlns:xlink="http://www.w3.org/1999/xlink" viewBox="0 0 720.65 720">
  <defs>
    <style>
      .cls-1 {
        fill: #27498c;
      }

      .cls-2 {
        clip-path: url(#clippath-2);
      }

      .cls-2, .cls-3, .cls-4, .cls-5 {
        fill: none;
      }

      .cls-6 {
        fill: #fff;
      }

      .cls-7 {
        fill: #0477bf;
      }

      .cls-8 {
        fill: #112241;
      }

      .cls-9 {
        fill: #112140;
      }

      .cls-10 {
        fill: #ed5737;
      }

      .cls-4 {
        clip-path: url(#clippath);
      }

      .cls-5 {
        clip-path: url(#clippath-1);
      }
    </style>
    <clipPath id="clippath">
      <path class="cls-3" d="m360.33,660c-80.16,0-155.65-31.18-212.3-87.89-56.76-56.6-87.97-132.02-87.97-212.11s31.2-155.51,87.97-212.11c56.66-56.71,132.14-87.89,212.3-87.89s155.65,31.18,212.3,87.89c56.76,56.72,87.97,132.02,87.97,212.11s-31.2,155.51-87.97,212.11c-56.66,56.71-132.14,87.89-212.3,87.89Zm0-582.01c-75.37,0-146.29,29.38-199.59,82.61-53.29,53.23-82.68,124.1-82.68,199.4s29.4,146.16,82.68,199.4c53.28,53.24,124.22,82.61,199.59,82.61s146.29-29.38,199.59-82.61,82.68-124.1,82.68-199.4-29.4-146.16-82.68-199.4c-53.28-53.24-124.22-82.61-199.59-82.61h0Z"/>
    </clipPath>
    <clipPath id="clippath-1">
      <rect class="cls-3" x="110.39" y="262.13" width="499.65" height="213.6"/>
    </clipPath>
    <clipPath id="clippath-2">
      <rect class="cls-3" x="148.43" y="148.3" width="423.98" height="423.6"/>
    </clipPath>
  </defs>
  <g class="cls-4">
    <rect class="cls-8" width="720.65" height="720"/>
  </g>
  <g class="cls-5">
    <path class="cls-8" d="m594.59,426.44c-6.34,21.54-16.01,41.99-28.01,60.82-9.91,15.32-21.18,29.72-33.83,42.82-1.63,1.79-3.47,3.4-5.2,5.08-1.77,1.66-3.48,3.37-5.3,4.99l-5.49,4.76-2.75,2.39-2.85,2.27-5.68,4.54c-1.92,1.46-3.92,2.86-5.86,4.3-3.86,2.95-7.96,5.53-11.97,8.27-.58.38-1.19.79-1.83,1.22-.66.4-1.33.8-2.04,1.24-1.42.84-2.94,1.75-4.56,2.72-3.21,2.02-7,3.91-11.1,6.08-1.03.53-2.07,1.1-3.16,1.63-1.11.5-2.21,1.02-3.35,1.56l-7.07,3.26c-5,1.96-10.2,4.28-15.87,6.11-22.41,8.12-50.39,13.14-78.46,13.26-28.07-.12-56.04-5.14-78.46-13.26-5.68-1.82-10.88-4.15-15.88-6.11-2.44-1.13-4.79-2.21-7.07-3.26-1.14-.53-2.26-1.06-3.35-1.56-1.09-.52-2.13-1.1-3.16-1.63-4.1-2.17-7.89-4.08-11.1-6.08-1.62-.97-3.15-1.88-4.56-2.72-.71-.42-1.39-.83-2.04-1.24-.64-.42-1.24-.83-1.83-1.22-15.25-9.98-29.58-21.32-42.59-34.07-13.74-13.7-25.74-29.06-36.33-45.35-12-18.83-21.68-39.28-28.01-60.82-6.59-21.48-9.64-44.02-9.84-66.55.2-22.55,3.24-45.08,9.84-66.55,6.34-21.54,16.01-41.99,28.01-60.82,9.91-15.32,21.18-29.72,33.83-42.82,1.63-1.79,3.47-3.38,5.2-5.08,1.77-1.66,3.5-3.37,5.3-4.99l5.49-4.76,2.75-2.39,2.85-2.26,5.68-4.54c1.92-1.48,3.92-2.87,5.86-4.31,3.86-2.94,7.96-5.53,11.97-8.27.58-.4,1.18-.8,1.83-1.22.65-.4,1.33-.8,2.04-1.22,1.42-.85,2.94-1.76,4.56-2.74,3.21-2.02,7-3.91,11.1-6.08,1.03-.53,2.07-1.12,3.16-1.63s2.21-1.03,3.35-1.56c2.28-1.06,4.64-2.15,7.07-3.26,5-1.96,10.2-4.3,15.87-6.11,22.41-8.12,50.39-13.14,78.46-13.25,28.07.11,56.04,5.14,78.46,13.25,5.67,1.82,10.88,4.16,15.87,6.11,2.44,1.12,4.79,2.21,7.07,3.26,1.14.53,2.26,1.04,3.35,1.55,1.09.53,2.13,1.1,3.15,1.63,4.1,2.17,7.89,4.07,11.1,6.08,1.62.97,3.15,1.88,4.56,2.74.71.42,1.39.83,2.04,1.22.64.42,1.25.83,1.83,1.22,15.25,9.98,29.58,21.32,42.6,34.07,13.73,13.7,25.74,29.06,36.32,45.35,12,18.83,21.68,39.26,28.01,60.82,6.59,21.48,9.64,44.02,9.84,66.55-.19,22.54-3.24,45.07-9.84,66.55h.02Zm15.45-66.72v-.02c-.2-23.02-3.3-46.04-10.02-68-6.46-22.02-16.33-42.94-28.66-62.14l-5.92-8.9s-1.72-2.39-4.28-5.98c-2.47-3.66-6.26-8.17-9.87-12.82-3.89-4.4-7.63-8.95-10.77-12.06-3.05-3.18-5.08-5.3-5.08-5.3,0,0-.52-.53-1.44-1.42-.92-.89-2.25-2.17-3.83-3.7-3.1-3.16-7.59-6.95-11.99-10.84-2.27-1.87-4.59-3.67-6.74-5.4-1.08-.86-2.13-1.69-3.11-2.47-1.02-.73-1.99-1.44-2.88-2.08-3.58-2.58-5.97-4.3-5.97-4.3,0,0-.52-.42-1.36-.96-.83-.55-1.93-1.3-3.05-2.04-2.22-1.48-4.44-2.96-4.44-2.96-.59-.4-1.21-.82-1.86-1.26-.67-.41-1.37-.83-2.09-1.26-1.45-.88-3.01-1.81-4.67-2.81-3.28-2.06-7.16-4.01-11.35-6.24-1.06-.54-2.11-1.14-3.23-1.68-1.12-.52-2.27-1.06-3.42-1.6-2.33-1.08-4.74-2.2-7.24-3.35-5.1-2-10.44-4.39-16.24-6.26-22.94-8.32-51.57-13.48-80.29-13.58-28.72.11-57.36,5.27-80.3,13.6-5.8,1.87-11.13,4.26-16.24,6.26-2.5,1.15-4.9,2.27-7.24,3.35-1.17.54-2.31,1.08-3.42,1.6-1.12.54-2.17,1.13-3.23,1.68-4.19,2.23-8.07,4.18-11.35,6.24-1.66,1-3.22,1.93-4.67,2.81-.72.43-1.42.85-2.08,1.26-.65.44-1.27.85-1.86,1.26,0,0-2.21,1.49-4.43,2.96-1.12.74-2.22,1.49-3.05,2.04-.84.54-1.36.96-1.36.96,0,0-2.39,1.72-5.96,4.3-.9.65-1.86,1.34-2.89,2.08-.98.79-2.03,1.61-3.11,2.47-2.15,1.73-4.47,3.53-6.73,5.4-4.41,3.89-8.9,7.69-12,10.84-1.59,1.54-2.91,2.81-3.83,3.7-.94.89-1.44,1.42-1.44,1.42,0,0-2.03,2.12-5.08,5.3-3.13,3.1-6.87,7.66-10.76,12.06-3.62,4.64-7.4,9.16-9.87,12.82-2.57,3.59-4.29,5.98-4.29,5.98l-5.92,8.9c-12.32,19.2-22.21,40.1-28.66,62.14-6.71,21.96-9.81,44.99-10.02,68v.38c.2,23.02,3.32,46.04,10.02,68,6.45,22.03,16.33,42.94,28.66,62.14l5.92,8.89s1.71,2.39,4.28,5.98c2.47,3.66,6.26,8.17,9.87,12.82,3.89,4.4,7.63,8.95,10.76,12.06,3.05,3.18,5.08,5.3,5.08,5.3,0,0,.52.53,1.44,1.42s2.25,2.17,3.83,3.7c3.1,3.16,7.59,6.95,12,10.84,2.26,1.88,4.59,3.67,6.73,5.41,1.08.85,2.13,1.69,3.11,2.47,1.02.74,1.99,1.44,2.89,2.08,3.57,2.58,5.96,4.3,5.96,4.3,0,0,.52.42,1.36.96.83.56,1.95,1.3,3.05,2.04,2.22,1.49,4.44,2.96,4.44,2.96.59.4,1.21.82,1.86,1.26.67.41,1.37.83,2.08,1.26,1.45.86,3.01,1.81,4.67,2.8,3.28,2.06,7.16,4.01,11.35,6.24,1.06.54,2.11,1.14,3.22,1.68,1.13.53,2.27,1.06,3.42,1.6,2.33,1.08,4.74,2.2,7.24,3.35,5.1,2,10.44,4.4,16.25,6.26,22.93,8.33,51.57,13.48,80.29,13.6,28.72-.12,57.36-5.27,80.29-13.6,5.8-1.86,11.13-4.26,16.25-6.26,2.49-1.15,4.9-2.27,7.23-3.35,1.17-.54,2.31-1.08,3.42-1.6,1.12-.53,2.17-1.13,3.23-1.68,4.19-2.23,8.07-4.18,11.35-6.24,1.66-1,3.22-1.93,4.67-2.8.72-.43,1.42-.86,2.09-1.26.65-.43,1.27-.85,1.86-1.26,0,0,2.22-1.48,4.44-2.96,1.11-.74,2.21-1.48,3.05-2.04.84-.54,1.36-.96,1.36-.96,0,0,2.39-1.72,5.97-4.3.89-.65,1.86-1.33,2.88-2.08,1-.78,2.03-1.61,3.11-2.47,2.15-1.73,4.47-3.53,6.74-5.41,4.41-3.89,8.9-7.69,11.99-10.84,1.59-1.52,2.91-2.81,3.83-3.7s1.44-1.42,1.44-1.42c0,0,2.03-2.12,5.08-5.3,3.13-3.1,6.87-7.66,10.77-12.06,3.62-4.64,7.4-9.16,9.87-12.82,2.57-3.59,4.28-5.98,4.28-5.98l5.92-8.89c12.32-19.2,22.21-40.12,28.66-62.14,6.71-21.96,9.81-44.99,10.02-68v-.35"/>
  </g>
  <path class="cls-10" d="m360.46,157.42c-105.13,0-191.95,79.55-201.9,182.87,6.5-5.24,13.08-11.1,19.93-17.22,6.94-6.2,14.11-12.6,21.44-18.5,7.65-6.24,46.6-8.52,55.83.35,11.6,11.09,22.59,21.19,32.68,30.05.13.1.28.19.41.31,37.38,32.86,57.53,44.88,63.69,48.19,14.24-8.47,35-8.59,46.87,4.31,7.64-1.64,15.6-.59,22.89,2.77-.89-5.63-.52-11.44,1.26-16.8,2.37-7.15,8.29-17.08,23.02-23.71,17.21-7.82,36.95-5.62,51.98,4.1-10.35-16.75-24.5-24.2-33.53-27.4-15.25-5.47-29.35-4.16-36.57-.46-1.14.59-2.13,1.24-2.88,1.91,1.36,1.61,2.44,3.78,3.09,6.38,1.96,7.68-.32,17.38-9.85,21.67-7.04,3.17-14.51,2.2-20.49-2.68-8.31-6.78-11.82-19.36-8.96-32.05,4.3-19.21,17.92-29.11,28.6-34.02,17.08-7.86,38.66-8.39,53.26-1.51,20.91-5.5,44.91-1.45,64.58,10.92,9.37,5.9,17.19,13.36,23.24,21.97-19-92.81-100.6-161.47-198.56-161.47h-.01Zm101.06,224.28c-1.13.16-2.21.48-3.16.91.53.31,1.06.66,1.56,1.06,4.9,3.79,7.96,11.57,3.78,20.33-2.59,5.48-8.16,9.29-14.87,10.18-1.33.17-2.65.17-3.98.1,1.51,3.62,2.52,7.4,3.01,11.27,7.7.31,16.18-3.72,22.36-10.93,6.61-7.73,8.84-16.87,6.01-24.54-3.44-6.08-8.92-9.23-14.73-8.36"/>
  <path class="cls-6" d="m563.13,353.78c-7.57-10.75-23.1-13.07-31.55-11.11-2.41.55-4.47,1.31-6.33,2.3-6.68,3.43-10.62,9.95-10.15,16.66.4,5.47,3.54,9.6,8.64,11.35,2.95,1,6.01-.73,7.41-2.92,1.25-1.9,1.09-3.71-.46-5.35-.88-.95-1.32-2.23-1.2-3.53.11-1.3.78-2.47,1.83-3.25,4.71-3.49,11.18-3.19,16.9.77,6.16,4.27,11.21,12.38,13.79,23.76.82-7.36,1.26-14.8,1.26-22.32,0-2.15-.06-4.22-.13-6.35h0Zm-159.04-7.28c2.29,1.88,6.07,3.66,10.94,1.44,2.93-1.33,4.62-3.61,5.03-6.8.42-3.32-.72-6.07-1.43-6.97-1.12-.18-2.14-.73-2.87-1.63-.95-1.14-1.26-2.69-.86-4.13,1.17-4.14,4.4-7.68,9.36-10.22,10.57-5.46,26.99-5.64,42.21-.59,15.06-5.09,45.87-1.25,58.52,17.51,1.44-.52,2.95-.97,4.58-1.33,7.33-1.69,19.45-1.2,29.67,4.51-5.39-13.66-15.12-25.37-28.3-33.65-18.08-11.35-40.13-14.88-58.93-9.4-1.15.32-2.38.22-3.41-.36-12.07-6.41-31.76-6.02-46.82.92-8.8,4.06-20.02,12.14-23.49,27.72-2.4,10.66,1.19,19.21,5.83,22.98h-.01Zm46.23,11.84c-9.28,4.18-15.54,10.48-18.11,18.25-2.29,6.96-1.54,14.92,2.03,21.28.49.79,1.04,1.74,1.71,2.47,3.06,3.64,7.29,5.35,11.7,4.74,3.56-.47,6.55-2.39,7.8-5.03,2.15-4.49.73-7.75-1.13-9.19-.97-.77-1.84-.83-2.04-.68-1.5,1.27-3.63,1.4-5.31.4-1.67-1.01-2.51-2.98-2.08-4.9,1.53-6.78,7.54-11.9,15.33-13.02,7.6-1.1,17.84,1.79,24.11,13.09.02.05.04.08.06.13h0c.46.79.89,1.57,1.23,2.35,5.27,11.48,5.21,25.63-.19,38.72-6.16,14.92-18.57,26.88-35.14,33.97.59,4.55.42,9.05-.46,13.39,9.84-3.67,21.67-3.42,32.18,1.12,44.85-34.14,34.01-82.75,26.52-97.32-10.67-20.63-36.77-29.47-58.18-19.76h0Zm30.5,126.58c-.13-.05-.26-.08-.4-.16-12.16-6.24-27.65-4.79-36.01,3.4l-.95,1.02c-.46.78-1.06,1.58-1.77,2.44-1.62,2.69-2.44,5.89-2.22,8.94.26,5.58,3.41,9.7,7.48,9.92,4.32.02,5.72-2.38,6.21-3.48.64-1.44.73-3.42-.47-4.62s-1.65-3.04-1.11-4.68c.55-1.63,1.97-2.82,3.69-3.07,3.29-.48,6.46-.19,9.15.79h.01s.11.05.16.06c7.18,2.4,12.06,9.31,12.88,18.49.35,3.77-.06,8.15-1.45,12.62,8.06-5.58,15.71-11.76,22.94-18.53-3.87-13.21-11.85-19.85-18.15-23.14h0Zm-40.14-25.86c-.86-3.73-2.32-7.36-4.3-10.72-.77-1.31-.84-2.9-.2-4.28,2.13-4.46,3.11-9.4,2.86-14.26-.24-8.39-3.83-16.81-9.9-23.2-8.32-8.93-19.81-12.5-30.05-9.37-1.84.61-3.84-.08-5.02-1.63-8.7-11.7-27.37-11.06-38.65-3.19-6.81,4.7-10.58,11.62-10.65,19.49-.04,4.72,1.56,8.48,4.37,10.32,2.11,1.36,4.65,1.49,7.17.35,1.13-.5,2.15-2,2.57-3.77.42-1.73.07-2.82-.08-3.02-2.17-.78-3.28-2.98-2.77-5.23,1.89-8.12,9.03-13.38,17.48-12.82,7.06.29,15.09,4.44,18.5,12.84,7.94-1.79,16.59.31,23.59,5.93,13.93,11.23,16.66,33.04,6.23,49.61-4.85,7.6-11.82,13.46-20.74,17.44-7.21,3.18-14.73,4.57-22.28,4.57-1.59,0-3.17-.07-4.76-.19,11.39,4.76,23.96,8.32,37.31,9.34h.76c8.32,0,16.64-4.15,22.26-11.14.62-.92,1.19-1.75,1.84-2.48,4.86-7.19,6.47-15.94,4.5-24.64v.06Zm-140.04,24.53c-1.68,3.56-3.83,6.68-6.41,9.31,1.98,1.7,4.32,3.76,6.99,6.11,13.28,11.68,33.35,29.33,54.11,43.04l.92.64c13.82,9.2,25.76,17.16,37.59,17.32,8.37-1.38,16.64-3.31,24.72-5.74-15.47-2.52-32.57-10.14-52.03-23.03-23.59-15.61-49.87-35.34-65.89-47.65h0Zm16.2-34.67s.06.06.08.07h.02c1.38,1.39,2.59,2.62,3.89,3.83h0l.05.05s.01,0,.01.01c.02.01.02.04.05.04,20.27,18.18,50.97,33.53,76.39,22.31,7.23-3.23,12.86-7.93,16.72-13.97,8-12.71,6.15-29.26-4.23-37.63-6.93-5.56-14.39-5.22-19.03-3.06-5.18,2.51-7.88,7.32-7.18,12.83.56,4.56,2.89,7.44,6.26,7.72,2.26.3,5.15-1.06,6.13-4.33.58-1.96,2.37-3.06,4.43-3.26,2.04.04,3.83,1.4,4.36,3.37,1.86,6.85-.73,14.18-6.93,19.61-7.76,6.82-22.1,10.98-36.6,4.96-19.63-8.2-33.23-24.53-45.22-38.92-1.25-1.5-2.46-2.94-3.65-4.37,2.56,9.32,2.41,18.13-.55,25.57,1.66,1.79,3.32,3.55,5.01,5.18h-.01Zm-58.61-50.35c18.26,4.72,30.56,16.24,33.7,31.63.5,2.46-1.09,4.88-3.56,5.39-.16.02-.31.02-.46.05-.16.01-.31.04-.47.04h-.12c-.06,0-.08.01-.14.01-2.21.2-3.11,3.29-3.19,3.66-.55,2.65-.02,7.73,5.49,9.89,2.92,1.1,5.51.26,7.16-.61,2.26-1.22,4.28-3.35,5.68-5.98.04-.07.05-.16.07-.22,2.28-4.34,6.38-16.52-4.84-35.84-1.32-2.28-2.81-4.38-4.42-6.22-.01,0-.02-.02-.04-.04-.01-.02-.04-.04-.05-.05-18.75-22.38-59.35-30.67-94.38-19.24-13.52,4.42-25.88,11.41-36.83,20.72,1.69,8.12,3.89,16.2,6.64,24.11,27.37-27.54,64.99-33.74,89.72-27.32h.02Zm36.89,60.06c-.92.14-1.85.24-2.77.24-2.08,0-4.14-.37-6.13-1.12-9.8-3.84-12.65-13.19-11.17-20.27.56-2.71,1.73-4.98,3.28-6.76-13.46-7.76-28.72-10.33-44.14-7.73,10.88,1.73,20.95,6.26,29.02,13.43,11.99,10.66,17.18,25.49,13.9,39.71-.48,2.09-2.45,3.12-4.52,3.54-2.15-.02-3.99-1.55-4.42-3.66-.4-1.93-2.21-2.71-3.64-2.78-.96-.13-4.19.08-5.62,4.48-1.15,3.52-.11,6.42.95,8.26,2.73,4.97,8.35,7.62,14.49,6.8,3.87-.44,7.27-1.67,10.17-3.64,4.55-3.07,7.78-7.82,9.58-14.1,1.36-4.91,1.67-10.52,1-16.42h.02Zm-118.82-114.59c2.81.49,5.14,1.74,6.93,3.62,10.37-9.01,20.09-12.68,27.25-10.09,1.65.59,3.07,1.52,4.25,2.72,5.27-6.53,10.76-9.73,16.66-9.79h.13c6.87,0,13.39,4.38,19.84,13.36,2.5-2.17,5.5-3.41,8.88-3.6,5.22-.26,10.63,1.96,15.63,5.18.04-1.07.13-2.1.42-3.07.35-1.24,1-2.68,2.14-4.07-9.08-8.09-18.8-17.04-29.01-26.8-5.14-4.94-38.78-3.91-43.76.14-7.16,5.78-14.23,12.11-21.1,18.23-5.79,5.17-11.39,10.16-16.95,14.8,3.01-.79,6.02-1.1,8.68-.62h0Zm92.54,120.83c-.76-7.9-4.78-15.46-11.7-21.61-10.58-9.4-30.04-16.5-53.04-8.42-8.42,5.32-16.13,12.07-22.99,20.06,1.75,3.31,3.46,6.32,5.14,9.12,10.47-11.03,25.78-15.5,37.38-14.93,11.33.58,20.33,5.51,24.72,13.54.66,1.19.73,2.63.23,3.89-.52,1.27-1.57,2.23-2.87,2.64-5.21,1.66-6.23,5.41-6.39,7.49-.26,3.59,1.61,7.09,4.55,8.6.07.04.13.07.22.12,1.67.76,3.68.88,5.87.35-.95-3.5-.9-7.25.26-10.82,2.26-6.92,8.22-11.16,14.82-10.76,1.32.08,2.59.34,3.78.73"/>
  <path class="cls-1" d="m543.01,366.2c-.49-.34-1.25-.82-2.15-1.15.68,3.31.01,6.8-2.07,10-1.48,2.29-3.5,4.1-5.78,5.35,5.93,6.17,10.14,15.26,12.18,26.58,2.08,11.41,1.79,25.22-1.39,39.8,2.03-4.3,3.94-8.69,5.67-13.16.02-.12.05-.24.08-.36,11.9-41.2.91-61.87-6.55-67.06Zm-61.12-41.46c8.72,5.34,18.28,13.72,25.75,26.72,1.81-4.68,5.01-8.86,9.26-12.01-7.59-10.54-22.98-14.52-35.01-14.72h0Zm-20.37,185.93c-2.53,5.8-8.28,9.13-15.03,8.92-7.4-.41-13.32-5.88-15.37-13.61-4.12.48-8.14.72-12.09.72-2.39,0-4.76-.08-7.13-.25h-1.17s-.02-.01-.04-.01c-.65,0-1.36-.05-1.98-.17-.07,0-.12-.05-.19-.06-11.7-1.12-22.81-3.95-33.07-7.82,19.49,14.23,40.15,26.03,58.36,28.64,13.72,2,23.41-1.16,27.2-8.94,1.56-3.18,1.81-6.7,1.26-9.66-.2.76-.43,1.51-.77,2.24h.01Zm-70.42-60.41c-.65.04-1.31.01-1.99-.05-5.89-.49-13.21-4.9-14.55-15.68-1.02-8.21,2.43-15.72,9.14-20.33-1.78-4.63-6.49-7.13-10.58-7.3-1.39-.12-5.15.08-7.17,3.24,1.37,1.73,2.16,4.02,2.26,6.65.18,5.18-2.58,11.71-8.19,14.17-5.32,2.4-11.13,2.03-15.87-1.03-5.48-3.56-8.6-10.15-8.52-18.06.07-8.57,3.3-16.25,9.15-22.27-8.96-5.24-28.01-17.86-59.45-45.26-.14.23-.2.42-.24.55-.6,2.1.9,7.37,7.09,15.29.65.7,1.49,1.73,2.34,2.76,1.61,1.96,1.35,4.86-.6,6.46-.85.71-1.89,1.07-2.92,1.07-1.3,0-2.59-.55-3.48-1.66l-.06-.07c-.77-.94-1.53-1.86-2.29-2.71,0-.02-.02-.02-.02-.05-.01,0-.02,0-.02-.02-9.18-10.56-18.45-16.96-24.33-16.58-1.77.11-3.17.9-4.38,2.42,1.17,2.04,2.31,4.15,3.39,6.36,1.11,2.27.18,4.99-2.1,6.1-2.23,1.1-5.01.17-6.11-2.11-1.65-3.37-3.4-6.53-5.22-9.4-5.38-8.58-10.5-13.09-14.81-13.09h-.06c-4.12.04-8.84,4.25-13.63,12.18-1.02,1.7-2.98,2.57-4.94,2.09-1.92-.46-3.35-2.09-3.52-4.06-.26-3.06-1.59-3.54-2.03-3.7-3.46-1.26-11.81,1.9-21.9,11.93-4,3.91-8.07,8.72-12.12,14.3-.9,1.24-2.29,1.9-3.7,1.9-.94,0-1.87-.28-2.68-.86-2.05-1.48-2.51-4.33-1.03-6.37,3.58-4.93,7.17-9.29,10.76-13.03-.53-.58-1.19-.84-1.96-.97-4.9-.83-13.7,3.73-17.16,7.39.02,10.61.85,21.04,2.44,31.13,10.52-8.21,22.17-14.51,34.76-18.76,5.18-5.41,9.12-12.3,9.16-12.37,1.24-2.2,4.02-2.95,6.22-1.72,2.2,1.25,2.95,4.03,1.72,6.23-.07.16-1,1.73-2.49,3.98,34.72-6.79,70.77,2.68,89.91,24.6,8.13,4.43,15.4,13.13,23.77,23.17,11.33,13.6,24.15,29.02,41.71,36.35,10.4,4.32,20.54,1.76,26.33-2.78h-.01Zm-81.48-69.18c-.89,1.16-2.25,1.78-3.62,1.78-.98,0-1.96-.32-2.8-.96-1.47-1.13-2.27-1.93-2.27-1.93-1.77-1.79-1.75-4.68.04-6.46,1.78-1.75,4.65-1.75,6.41-.02.1.08.58.55,1.41,1.19,1.99,1.55,2.37,4.42.82,6.4h.01Zm-69.8,112.36c-5.5-3.12-10.81-5.51-15.95-7.16,14.79,10.12,28.65,26.11,40.76,40.1,7.36,8.5,14.3,16.5,20.25,21.84,12.4,4.97,25.15,8.66,38.17,11.08-12.09-6.96-24.75-16.97-38.77-30.5-17.49-16.86-31.62-28.1-44.48-35.35h.01Zm-9.61-17.44c.38-5.29,2.94-9.77,7.11-12.76-3.33-2.95-8.24-4.74-14.14-5.03-10.13-.53-23.45,3.62-31.84,13.82.83,1.26,1.67,2.5,2.52,3.71,11.63-2.74,23.63-1.73,36.36,3.07-.07-.94-.07-1.87-.02-2.82"/>
  <path class="cls-7" d="m536.23,408.59c-2.39-13.22-8.24-22.85-16.05-26.41-.07-.04-.14-.06-.22-.08,7.07,21.53,10.77,65.47-29.41,98.24,6.87,5.03,12.17,12.05,15.53,20.53,26.96-30.42,34.63-67.55,30.15-92.28h0Zm-87.56,26.09c-.22,0-.43-.04-.65-.04-.34,3.78-1.19,7.55-2.63,11.14,1.04,1.98,1.92,4.02,2.68,6.12,13.64-6.2,23.83-16.15,28.9-28.43.64-1.56,1.17-3.12,1.63-4.7-.47.59-.94,1.18-1.43,1.75-7.67,8.96-18.35,14.15-28.49,14.15h-.01Zm-7.31,102.05c-2.69.01-5.63-.2-8.83-.66-26.28-3.77-59.23-24.24-103.65-64.42-.16-.11-.24-.2-.37-.31-4.58-3.53-9.09-7.37-13.8-11.76l-.05-.05c-1.32-1.24-2.57-2.46-3.81-3.7-.18-.14-.34-.31-.49-.48-1.15-1.12-2.29-2.28-3.41-3.47-.97,1.08-1.99,2.1-3.1,2.96,1.08,6.84,1.02,13.5-.18,19.56,15.55,11.99,43.28,32.92,67.93,49.24,32.36,21.43,57.15,27.3,78,18.49.05-.02.35-.17.61-.28.82-.41,1.65-.83,2.46-1.28.19-.12.4-.23.61-.34.02-.01.04-.02.06-.04,6.68-3.56,10.74-8.54,12.96-13.57-3.89,4.73-11.3,10.09-24.93,10.09h-.01Zm-91.1,12.95c-21.25-14.05-42.41-32.68-55.08-43.8-3.42-3.02-6.29-5.53-8.5-7.39-3.4,1.76-7.16,2.92-11.21,3.38-1.11.13-2.2.2-3.28.2-1.61,0-3.18-.2-4.72-.49,7.15,5.77,14.8,12.6,23.17,20.68,29.01,28.01,51.43,40.1,75,40.43h.04c1.57-.02,3.04-.1,4.4-.18v.02c.32,0,.62-.02.88-.02-6.53-3.4-13.07-7.74-19.77-12.2l-.92-.62h.01Zm-73-129.72c-4.72-5.82-11.96-10.12-21.3-12.53-23.81-6.13-59.84,1.66-83.86,28.08,1.39,3.52,2.94,7.07,4.61,10.62,6.89-7.56,14.55-14.02,22.83-19.21.05-.04.11-.06.17-.08.01,0,.01-.01.02-.01.04-.02.06-.04.1-.05.02-.01.04-.02.05-.04.02-.02.05-.02.06-.02,25.08-15.6,53.51-17.8,77.33-6.76h-.01Zm-75.82,65.9c16.71,21.06,37.27,38.5,60.57,51.42-1.41-1.61-2.82-3.24-4.26-4.91-16.71-19.3-36.87-42.64-56.31-46.51"/>
  <g class="cls-2">
    <path class="cls-9" d="m572.42,360.13c0-2.36-.07-4.67-.16-7.02.04-.22.07-.42.07-.65,0-.28-.05-.55-.11-.82-4.52-114.05-97.52-203.36-211.75-203.36s-206.4,88.55-211.75,201.49c-.2,2.94-.29,5.95-.29,8.89v1.46c0,13.97,1.32,27.68,3.92,40.75,2.31,11.94,5.73,23.81,10.17,35.24,2.53,6.68,5.59,13.5,9.07,20.29.01.02.02.04.02.06,3.63,7,6.92,12.68,10.29,17.78,1.98,3.22,4.17,6.42,6.39,9.38,23.42,32.53,55.36,57.66,92.35,72.66h0s.08.02.11.05l-.02.06c25.39,10.27,52.22,15.49,79.74,15.49,1.83,0,3.54,0,5.12-.1,1.67,0,3.44-.01,4.66-.17.07,0,.13,0,.2-.01.89,0,1.84-.02,2.75-.11h0c7.93-.49,15.05-1.3,21.73-2.42.05,0,.08-.02.13-.02.02,0,.05,0,.07-.02,20.18-3.29,39.71-9.53,58.05-18.53.26-.11.79-.31,1.03-.46.16-.1.17-.1.02,0h0l2.26-1.08c.36-.18.95-.47,1.59-.95,17.88-9.18,34.42-21.01,49.17-35.18h-.02c.36-.26.72-.56.8-.79,22.15-21.4,39-46.78,50.09-75.41h0c.11-.3.2-.61.26-.94,9.28-23.92,14.03-49.32,14.03-75.56v-.02Zm-112.49,23.53c-.5-.4-1.03-.74-1.56-1.06.95-.43,2.03-.76,3.16-.91,5.79-.86,11.29,2.28,14.73,8.36,2.83,7.67.6,16.81-6.01,24.54-6.19,7.21-14.67,11.24-22.36,10.93-.48-3.85-1.5-7.63-3.01-11.27,1.31.07,2.64.07,3.98-.1,6.71-.88,12.28-4.69,14.87-10.18,4.18-8.76,1.12-16.54-3.78-20.33h0Zm-11.9,50.98c.22,0,.43.04.65.04,10.14,0,20.81-5.18,28.49-14.15.5-.58.97-1.16,1.43-1.75-.47,1.57-1,3.14-1.63,4.7-5.06,12.26-15.24,22.22-28.9,28.43-.76-2.1-1.63-4.14-2.68-6.12,1.44-3.59,2.29-7.36,2.63-11.14h.01Zm2.25,26.28c16.58-7.09,28.98-19.06,35.14-33.97,5.4-13.09,5.46-27.24.19-38.72-.34-.78-.78-1.56-1.23-2.34h0s-.04-.1-.06-.14c-6.27-11.29-16.5-14.18-24.11-13.09-7.78,1.13-13.8,6.24-15.33,13.02-.42,1.92.41,3.89,2.08,4.9,1.68,1.01,3.81.88,5.31-.4.2-.16,1.07-.08,2.04.68,1.86,1.44,3.28,4.7,1.13,9.19-1.25,2.64-4.24,4.56-7.8,5.03-4.42.61-8.64-1.12-11.7-4.74-.66-.73-1.23-1.69-1.71-2.47-3.57-6.36-4.32-14.33-2.03-21.28,2.57-7.78,8.83-14.08,18.11-18.25,21.42-9.71,47.53-.86,58.18,19.76,7.49,14.57,18.33,63.18-26.52,97.32-10.51-4.54-22.34-4.79-32.18-1.12.88-4.34,1.04-8.86.46-13.39h0Zm-14.09,22.78c-.64.73-1.21,1.56-1.84,2.48-5.62,6.97-13.93,11.14-22.26,11.14h-.76c-13.34-1.02-25.92-4.57-37.31-9.34,1.59.12,3.17.19,4.76.19,7.55,0,15.07-1.39,22.28-4.57,8.92-3.97,15.88-9.84,20.74-17.44,10.43-16.57,7.7-38.38-6.23-49.61-7-5.63-15.65-7.72-23.59-5.93-3.4-8.39-11.43-12.55-18.5-12.84-8.46-.56-15.59,4.69-17.48,12.82-.52,2.26.6,4.45,2.77,5.23.17.2.5,1.3.08,3.02-.42,1.75-1.44,3.26-2.57,3.77-2.52,1.14-5.06,1.01-7.17-.35-2.81-1.84-4.41-5.6-4.37-10.32.07-7.88,3.84-14.78,10.65-19.49,11.29-7.88,29.96-8.51,38.65,3.19,1.17,1.55,3.18,2.23,5.02,1.63,10.25-3.13,21.73.44,30.05,9.37,6.07,6.38,9.67,14.81,9.9,23.2.25,4.86-.73,9.78-2.86,14.26-.64,1.38-.56,2.96.2,4.28,1.99,3.36,3.44,6.97,4.3,10.72,1.97,8.7.36,17.45-4.5,24.64v-.06Zm10.33,35.89c6.75.22,12.49-3.12,15.03-8.92.34-.73.56-1.49.77-2.24.55,2.95.3,6.48-1.26,9.66-3.8,7.78-13.49,10.94-27.2,8.94-18.21-2.62-38.87-14.41-58.36-28.64,10.26,3.86,21.37,6.71,33.07,7.82.07.02.12.06.19.06.62.12,1.32.16,1.98.17.01,0,.01.01.04.01h1.17c2.37.17,4.74.25,7.13.25,3.96,0,7.98-.24,12.09-.72,2.05,7.73,7.98,13.19,15.37,13.61h-.01Zm-134.11-101.41c1.19,1.42,2.41,2.87,3.65,4.37,11.99,14.39,25.6,30.72,45.22,38.92,14.51,6.02,28.85,1.86,36.6-4.96,6.2-5.42,8.79-12.76,6.93-19.61-.53-1.98-2.32-3.35-4.36-3.37-2.05.2-3.86,1.31-4.43,3.26-.97,3.29-3.87,4.63-6.13,4.33-3.36-.26-5.68-3.16-6.26-7.72-.7-5.51,2.02-10.31,7.18-12.83,4.64-2.16,12.09-2.5,19.03,3.06,10.38,8.38,12.23,24.92,4.23,37.63-3.86,6.04-9.49,10.74-16.72,13.97-25.42,11.22-56.11-4.14-76.39-22.31-.02,0-.02-.02-.05-.04,0,0-.01,0-.01-.01-.01-.01-.04-.02-.05-.05h0c-1.3-1.21-2.52-2.44-3.89-3.82,0,0-.01,0-.02-.01-.02-.02-.05-.05-.08-.07-1.69-1.63-3.35-3.38-5.01-5.18,2.97-7.44,3.1-16.26.55-25.57h.01Zm195.26-66.71c-7.47-13.01-17.03-21.38-25.75-26.72,12.05.2,27.42,4.18,35.01,14.72-4.25,3.16-7.45,7.33-9.26,12.01h0Zm-41.2-33.86c-15.22-5.05-31.64-4.87-42.21.59-4.96,2.54-8.19,6.08-9.36,10.22-.4,1.43-.08,2.98.86,4.13.73.9,1.75,1.46,2.87,1.63.71.89,1.85,3.65,1.43,6.97-.4,3.19-2.1,5.47-5.03,6.8-4.88,2.22-8.65.44-10.94-1.44-4.62-3.77-8.23-12.34-5.83-22.98,3.47-15.58,14.69-23.66,23.49-27.72,15.07-6.94,34.75-7.32,46.82-.92,1.03.56,2.27.68,3.41.36,18.8-5.48,40.85-1.96,58.93,9.4,13.16,8.29,22.9,19.99,28.3,33.65-10.22-5.71-22.33-6.2-29.67-4.51-1.62.36-3.13.82-4.58,1.33-12.65-18.76-43.46-22.61-58.52-17.51h.01Zm-106-160.18c97.96,0,179.56,68.66,198.56,161.47-6.05-8.62-13.87-16.07-23.24-21.97-19.69-12.37-43.67-16.42-64.58-10.92-14.61-6.88-36.18-6.35-53.26,1.51-10.68,4.91-24.3,14.81-28.6,34.02-2.86,12.71.66,25.28,8.96,32.05,5.98,4.87,13.44,5.84,20.49,2.68,9.52-4.3,11.81-13.99,9.85-21.67-.66-2.6-1.74-4.78-3.09-6.38.76-.67,1.73-1.32,2.88-1.91,7.22-3.72,21.31-5.02,36.57.46,9.04,3.19,23.18,10.64,33.53,27.4-15.04-9.72-34.76-11.93-51.98-4.1-14.74,6.64-20.66,16.55-23.02,23.71-1.78,5.36-2.15,11.17-1.26,16.8-7.29-3.36-15.24-4.42-22.89-2.77-11.87-12.91-32.61-12.78-46.87-4.31-6.17-3.32-26.32-15.35-63.69-48.19-.13-.12-.28-.2-.41-.31-10.09-8.86-21.08-18.96-32.68-30.05-9.22-8.87-48.18-6.59-55.83-.35-7.33,5.9-14.5,12.31-21.44,18.5-6.85,6.12-13.43,11.98-19.93,17.22,9.97-103.32,96.77-182.87,201.9-182.87h.01Zm-82.03,180.88c-1.14,1.39-1.78,2.83-2.14,4.07-.28.97-.38,2.02-.42,3.07-5-3.23-10.4-5.45-15.63-5.18-3.38.19-6.38,1.43-8.88,3.6-6.45-8.96-12.97-13.36-19.84-13.36h-.13c-5.9.06-11.39,3.26-16.66,9.79-1.18-1.19-2.61-2.12-4.25-2.72-7.16-2.59-16.89,1.09-27.25,10.09-1.79-1.88-4.12-3.13-6.93-3.62-2.68-.48-5.67-.18-8.68.62,5.57-4.63,11.17-9.62,16.95-14.8,6.86-6.12,13.94-12.46,21.1-18.23,4.97-4.06,38.62-5.09,43.76-.14,10.22,9.77,19.93,18.71,29.01,26.8h0Zm-120.87,22.13c3.46-3.65,12.26-8.21,17.16-7.39.77.13,1.42.4,1.96.97-3.58,3.76-7.18,8.11-10.76,13.03-1.48,2.04-1.02,4.9,1.03,6.37.8.59,1.74.86,2.68.86,1.41,0,2.8-.66,3.7-1.9,4.04-5.59,8.12-10.39,12.12-14.3,10.09-10.03,18.44-13.19,21.9-11.93.43.17,1.77.65,2.03,3.7.17,1.97,1.6,3.6,3.52,4.06,1.96.48,3.93-.38,4.94-2.09,4.79-7.93,9.51-12.16,13.63-12.18h.06c4.3,0,9.42,4.52,14.81,13.09,1.84,2.87,3.58,6.04,5.22,9.4,1.11,2.28,3.87,3.2,6.11,2.11,2.28-1.1,3.21-3.83,2.1-6.1-1.08-2.21-2.21-4.32-3.39-6.36,1.21-1.52,2.61-2.32,4.38-2.42,5.89-.37,15.17,6.02,24.33,16.58,0,.01,0,.02.02.02,0,.02.02.02.02.05.77.85,1.53,1.78,2.29,2.71l.06.07c.89,1.09,2.19,1.66,3.48,1.66,1.03,0,2.07-.35,2.92-1.07,1.95-1.6,2.21-4.51.6-6.46-.85-1.02-1.71-2.05-2.34-2.76-6.19-7.92-7.69-13.19-7.09-15.29.04-.13.1-.34.24-.55,31.44,27.42,50.49,40.02,59.45,45.26-5.85,6.02-9.08,13.72-9.15,22.27-.07,7.91,3.05,14.5,8.52,18.06,4.73,3.06,10.55,3.43,15.87,1.03,5.61-2.46,8.36-8.98,8.19-14.17-.08-2.63-.89-4.92-2.26-6.65,2.03-3.16,5.78-3.36,7.17-3.24,4.1.17,8.8,2.66,10.58,7.3-6.71,4.61-10.16,12.12-9.14,20.33,1.33,10.79,8.66,15.2,14.55,15.68.68.06,1.35.08,1.99.05-5.79,4.55-15.93,7.1-26.33,2.78-17.56-7.33-30.39-22.75-41.71-36.35-8.37-10.06-15.64-18.74-23.77-23.17-19.15-21.92-55.19-31.39-89.91-24.6,1.49-2.26,2.41-3.83,2.49-3.98,1.25-2.2.48-4.98-1.72-6.23-2.2-1.24-4.98-.48-6.22,1.72-.05.07-3.99,6.96-9.16,12.37-12.59,4.25-24.24,10.55-34.76,18.76-1.59-10.1-2.41-20.52-2.44-31.13h.01Zm10.95,65.48c-2.74-7.91-4.94-15.98-6.64-24.11,10.94-9.31,23.31-16.31,36.83-20.72,35.05-11.44,75.63-3.16,94.38,19.24.01.01.04.02.05.05.01,0,.02.02.04.04,1.61,1.84,3.09,3.94,4.42,6.22,11.21,19.32,7.11,31.5,4.84,35.84-.04.07-.05.16-.07.22-1.42,2.63-3.44,4.76-5.68,5.98-1.66.88-4.24,1.72-7.16.61-5.51-2.17-6.05-7.24-5.49-9.89.08-.37.98-3.46,3.19-3.66.06,0,.08,0,.14-.01h.12c.16,0,.31-.02.47-.04.16-.02.31-.02.46-.05,2.47-.5,4.06-2.93,3.56-5.39-3.16-15.4-15.45-26.93-33.7-31.63-24.73-6.42-62.35-.22-89.72,27.32h-.02Zm94.69,10.54c-8.07-7.16-18.14-11.7-29.02-13.43,15.42-2.62,30.68-.04,44.14,7.73-1.55,1.78-2.71,4.03-3.28,6.76-1.48,7.08,1.37,16.43,11.17,20.27,1.98.76,4.04,1.12,6.13,1.12.92,0,1.85-.1,2.77-.24.67,5.89.36,11.5-1,16.42-1.81,6.28-5.04,11.03-9.58,14.1-2.91,1.97-6.32,3.19-10.17,3.64-6.14.82-11.76-1.85-14.49-6.8-1.07-1.84-2.1-4.74-.95-8.26,1.42-4.39,4.66-4.61,5.62-4.48,1.43.07,3.24.85,3.64,2.78.42,2.11,2.27,3.64,4.42,3.66,2.07-.42,4.04-1.44,4.52-3.54,3.28-14.22-1.91-29.06-13.9-39.71h-.02Zm-91.13-.95c24.02-26.42,60.07-34.21,83.86-28.08,9.33,2.41,16.58,6.71,21.3,12.53-23.82-11.04-52.26-8.84-77.33,6.76-.02,0-.05,0-.06.02-.01.01-.02.02-.05.04-.04.02-.06.04-.1.05,0,0,0,.01-.02.01-.05.04-.11.05-.17.08-8.29,5.2-15.94,11.65-22.83,19.21-1.68-3.56-3.22-7.1-4.61-10.62h.01Zm14.17,28.54c-1.68-2.8-3.39-5.81-5.14-9.12,6.85-8,14.57-14.75,22.99-20.06,23-8.08,42.46-.97,53.04,8.42,6.92,6.16,10.94,13.72,11.7,21.61-1.19-.41-2.46-.66-3.78-.73-6.61-.4-12.56,3.84-14.82,10.76-1.17,3.58-1.23,7.32-.26,10.82-2.2.53-4.2.41-5.87-.35-.07-.05-.14-.08-.22-.12-2.93-1.51-4.82-5-4.55-8.6.16-2.08,1.18-5.84,6.39-7.49,1.3-.41,2.35-1.38,2.87-2.64.5-1.26.42-2.69-.23-3.89-4.38-8.03-13.39-12.96-24.72-13.54-11.6-.58-26.9,3.9-37.38,14.93h-.01Zm5.08,8.03c8.38-10.2,21.7-14.35,31.84-13.82,5.89.29,10.8,2.08,14.14,5.03-4.16,2.98-6.71,7.45-7.11,12.76-.06.95-.05,1.9.02,2.82-12.72-4.8-24.73-5.8-36.36-3.07-.85-1.21-1.69-2.45-2.52-3.71h-.01Zm10.08,13.79c19.43,3.88,39.59,27.22,56.31,46.51,1.44,1.67,2.86,3.29,4.26,4.91-23.3-12.92-43.86-30.36-60.57-51.42h0Zm83.46,62.36c-5.96-5.34-12.9-13.33-20.25-21.84-12.12-13.99-25.99-29.99-40.76-40.1,5.14,1.67,10.45,4.06,15.95,7.16,12.85,7.26,26.99,18.49,44.48,35.35,14,13.54,26.66,23.54,38.77,30.5-13.02-2.42-25.76-6.11-38.17-11.08h-.01Zm85.17,14.29v-.02c-1.36.08-2.82.16-4.4.18h-.04c-23.57-.32-46-12.42-75-40.43-8.36-8.08-16.02-14.9-23.17-20.68,1.54.29,3.1.49,4.72.49,1.08,0,2.17-.07,3.28-.2,4.05-.47,7.8-1.61,11.21-3.38,2.21,1.86,5.07,4.38,8.5,7.39,12.67,11.12,33.83,29.75,55.08,43.8l.92.62c6.7,4.46,13.24,8.81,19.77,12.2-.26,0-.55.01-.88.02h-.01Zm23.77-2.51c-11.83-.16-23.78-8.11-37.59-17.32l-.92-.64c-20.75-13.72-40.83-31.37-54.11-43.04-2.67-2.35-5.02-4.4-6.99-6.11,2.58-2.63,4.73-5.75,6.41-9.31,16.02,12.31,42.3,32.04,65.89,47.65,19.46,12.88,36.56,20.5,52.03,23.03-8.08,2.42-16.35,4.36-24.72,5.74h0Zm59.49-19.81s-.04.02-.06.04c-.04.01-.07.05-.11.06-.17.1-.35.19-.5.28-.82.46-1.65.86-2.46,1.28-.26.11-.56.25-.61.28-20.85,8.81-45.64,2.94-78-18.49-24.66-16.32-52.37-37.24-67.93-49.24,1.2-6.06,1.25-12.72.18-19.56,1.12-.86,2.14-1.88,3.1-2.96,1.13,1.19,2.27,2.35,3.41,3.47.16.18.31.34.49.48,1.24,1.24,2.47,2.47,3.81,3.7.01.02.04.04.05.05,4.72,4.39,9.24,8.23,13.8,11.76.12.11.22.19.37.31,44.43,40.18,77.37,60.65,103.65,64.42,3.21.47,6.14.67,8.83.66,13.63,0,21.04-5.36,24.93-10.09-2.21,5.03-6.27,10.01-12.96,13.57h.01Zm22.7-13.61c1.39-4.48,1.79-8.87,1.45-12.62-.82-9.18-5.69-16.09-12.88-18.49-.05-.02-.11-.05-.16-.06h-.01c-2.69-.98-5.86-1.27-9.15-.79-1.72.25-3.13,1.44-3.69,3.07-.54,1.64-.11,3.46,1.11,4.68,1.19,1.2,1.11,3.19.47,4.62-.49,1.1-1.87,3.5-6.21,3.48-4.07-.22-7.22-4.34-7.48-9.92-.22-3.05.59-6.24,2.22-8.94.71-.84,1.31-1.66,1.77-2.44l.95-1.02c8.36-8.18,23.85-9.64,36.01-3.4.13.07.26.11.4.16,6.29,3.28,14.28,9.92,18.15,23.14-7.23,6.77-14.88,12.95-22.94,18.53h0Zm30.05-25.72c-3.36-8.48-8.66-15.5-15.53-20.53,40.19-32.77,36.49-76.72,29.41-98.24.07.04.13.06.22.08,7.81,3.56,13.66,13.19,16.05,26.41,4.47,24.73-3.18,61.86-30.15,92.28h0Zm43.49-67.61c-.04.11-.06.24-.08.36-1.73,4.48-3.64,8.87-5.67,13.16,3.18-14.58,3.47-28.39,1.39-39.8-2.04-11.32-6.25-20.41-12.18-26.58,2.28-1.25,4.29-3.06,5.78-5.35,2.08-3.19,2.76-6.68,2.07-10,.89.34,1.66.82,2.15,1.15,7.46,5.18,18.45,25.86,6.55,67.06Zm-1.35-74.56c-5.73-3.96-12.19-4.26-16.9-.77-1.04.78-1.72,1.96-1.83,3.25-.12,1.28.32,2.58,1.2,3.53,1.55,1.66,1.71,3.46.46,5.35-1.41,2.18-4.46,3.91-7.41,2.92-5.09-1.75-8.24-5.88-8.64-11.35-.48-6.71,3.47-13.22,10.15-16.66,1.86-1,3.93-1.75,6.33-2.3,8.46-1.96,23.99.36,31.55,11.11.08,2.12.13,4.21.13,6.35,0,7.52-.46,14.96-1.26,22.32-2.58-11.38-7.63-19.49-13.79-23.76h0Zm-245,23.21c.84.65,1.81.96,2.8.96,1.37,0,2.71-.61,3.62-1.78,1.55-1.98,1.18-4.86-.82-6.4-.83-.64-1.31-1.12-1.41-1.19-1.77-1.74-4.62-1.74-6.41.02-1.78,1.78-1.79,4.67-.04,6.46,0,0,.8.8,2.27,1.93"/>
  </g>
  <path d="m203.61,140.34c-.46-1-.47-2.03-.05-3.1.4-1.08,1.12-1.86,2.13-2.33l23.65-10.62c1.01-.47,2.05-.49,3.12-.07,1.07.42,1.83,1.13,2.28,2.12.47,1.02.49,2.06.07,3.12-.4,1.06-1.12,1.81-2.13,2.28l-7.76,3.5,11.53,25.55c.5,1.14.53,2.28.1,3.42-.43,1.14-1.23,1.97-2.35,2.47-1.12.5-2.26.54-3.4.1-1.14-.46-1.96-1.24-2.45-2.38l-11.53-25.55-7.78,3.5c-1.01.47-2.05.5-3.12.1-1.07-.4-1.84-1.1-2.31-2.12h0Z"/>
  <path d="m254.54,119.66c-.31-1.16-.17-2.28.46-3.32.6-1.07,1.49-1.75,2.68-2.08l13.49-3.67c2.08-.56,4.08-.83,6.01-.8,1.91.02,3.68.38,5.28,1.1,1.61.7,3.03,1.75,4.23,3.16s2.09,3.19,2.68,5.38l.05.12c.83,3.1.8,5.8-.07,8.1-.89,2.29-2.39,4.24-4.5,5.86l7.93,5.58c.56.42,1.03.84,1.43,1.27s.68.97.88,1.62c.31,1.2.16,2.28-.5,3.23-.64.95-1.47,1.57-2.5,1.85-.95.26-1.83.28-2.61.02-.79-.26-1.53-.64-2.2-1.1l-11.27-8.3-6.83,1.85,2.33,8.5c.31,1.19.17,2.32-.46,3.37-.6,1.07-1.49,1.76-2.65,2.1-1.19.32-2.32.17-3.4-.46-1.07-.61-1.77-1.51-2.08-2.7l-8.36-30.67h0Zm9.54,1.13l3.03,11.17,8.66-2.35c2.11-.58,3.62-1.52,4.48-2.82.86-1.31,1.07-2.81.6-4.48l-.02-.12c-.52-1.88-1.49-3.11-2.93-3.7-1.42-.58-3.19-.58-5.33,0l-8.48,2.3h0Z"/>
  <path d="m308.99,106.86c-.17-1.2.11-2.28.85-3.25.73-.98,1.71-1.56,2.93-1.73,1.24-.17,2.33.12,3.3.88.96.73,1.54,1.7,1.71,2.9l4.38,31.85c.17,1.22-.12,2.32-.85,3.3-.73.97-1.72,1.54-2.95,1.7-1.23.17-2.32-.11-3.28-.85-.97-.76-1.54-1.73-1.71-2.95l-4.38-31.85Z"/>
  <path d="m341.58,103.66c-.02-1.21.4-2.26,1.25-3.12.86-.88,1.91-1.33,3.16-1.36l12.03-.16c2.41-.04,4.58.29,6.49.95,1.91.65,3.54,1.58,4.88,2.8,1.36,1.2,2.38,2.65,3.1,4.36.73,1.7,1.12,3.59,1.15,5.65v.12c.01,2.34-.38,4.39-1.2,6.18-.82,1.76-1.97,3.26-3.42,4.48-1.45,1.2-3.17,2.11-5.15,2.72-1.99.62-4.11.94-6.35.95l-6.76.1.1,8c.01,1.24-.41,2.29-1.27,3.18-.85.86-1.89,1.31-3.1,1.32-1.24.01-2.29-.4-3.18-1.25-.86-.86-1.31-1.91-1.32-3.16l-.37-31.78h-.01Zm9.08,15.8l7.03-.1c2.23-.01,3.95-.61,5.15-1.8,1.21-1.2,1.81-2.65,1.8-4.38v-.12c-.04-2-.7-3.5-2.01-4.52-1.29-1.01-3.05-1.51-5.28-1.5l-6.86.1.16,12.32h.01Z"/>
  <path d="m416.99,139.98l7.93-31.13c.3-1.2.97-2.11,2.03-2.72,1.07-.64,2.2-.8,3.4-.5l.92.25c.95.24,1.68.65,2.2,1.25.52.59.89,1.25,1.13,1.98l6.08,19.55,14.76-14.3c1.26-1.24,2.74-1.63,4.43-1.2l.95.23c1.18.32,2.08,1,2.7,2.05.64,1.03.8,2.15.5,3.35l-7.9,31c-.3,1.2-.97,2.11-2.03,2.75s-2.17.79-3.35.48c-1.19-.3-2.09-.97-2.7-2.03-.62-1.06-.78-2.17-.48-3.37l4.96-19.45-10.49,9.7c-.6.55-1.25.95-1.92,1.2-.68.24-1.42.25-2.2.05-.77-.2-1.39-.56-1.87-1.1-.49-.53-.86-1.19-1.13-1.98l-4.53-13.32-4.96,19.4c-.3,1.2-.96,2.09-1.98,2.68-1.02.6-2.13.76-3.3.46-1.2-.3-2.1-.95-2.7-1.96s-.76-2.1-.46-3.3h.01Z"/>
  <path d="m473.93,156.14l12.89-28.7c.5-1.1,1.31-1.86,2.45-2.3,1.15-.46,2.29-.41,3.42.1l20.39,9.12c1.01.46,1.72,1.19,2.1,2.2.38,1.02.35,2.04-.1,3.05-.46,1.02-1.19,1.72-2.2,2.08-1,.35-2.02.3-3.03-.16l-16.42-7.36-3.33,7.48,14.06,6.3c1,.46,1.69,1.19,2.08,2.22.4,1.02.37,2.03-.07,3.02-.47,1.02-1.21,1.72-2.22,2.08-1.02.37-2.03.32-3.03-.12l-14.06-6.3-3.46,7.73,16.67,7.48c1.03.46,1.74,1.18,2.13,2.2.38,1.01.35,2.03-.1,3.05-.46,1.01-1.19,1.7-2.2,2.08-1,.36-2.02.32-3.05-.12l-20.65-9.25c-1.14-.52-1.92-1.36-2.35-2.5s-.41-2.26.07-3.37v.02Z"/>
</svg>